# xmcd CD database file
#
# Track frame offsets:
#	183
#	30270
#	56868
#	87268
#	101860
#	114898
#	134890
#	146778
#	159980
#	171570
#	184045
#	197703
#	211025
#	225040
#	237595
#	251620
#	263960
#	293183
#	306328
#	322073
#
# Disc length: 4474 seconds
#
# Revision: 5
# Processed by: cddbd v1.5.2PL0 Copyright (c) Steve Scherf et al.
# Submitted via: CDex 2.21
#
DISCID=29117814
DTITLE=Jazz Parade - Jazz Parade 40's-60's
DYEAR=1990
DGENRE=Jazz
TTITLE0=Dave Brubeck with Paul Desmond - Take Five
TTITLE1=Miles Davis Quintet with John Coltrane and Red Garland - 'Round Midnight
TTITLE2=Sonny Rollins Qaurtet with Tommy Flanagan and Max Roach - St. Thomas
TTITLE3=The Modern Jazz Quartet - Vendome
TTITLE4=Gerry Mulligan Quartet with Chet Baker - Bernie's Tune
TTITLE5=Charles Mingus Sextet with Bill Evans - Memories Of You
TTITLE6=Stan Kenton Orchestra - Artistry Jumps
TTITLE7=Duke Ellington Orchestra - Take The 'A' Train
TTITLE8=Count Basie Orchestra - The Kid From Red Bank
TTITLE9=Stan Getz Quintet - Stella By Starlight
TTITLE10=Benny Goodman Orchestra - King Porter Stomp
TTITLE11=Oscar Peterson Trio with Barney Kessel and Ray Brown - Sweet Georgia Brown
TTITLE12=Dizzy Gillespie Sextet - I Can't Get Started
TTITLE13=Errol Garner Qaurtet - Misty
TTITLE14=Charlie Parker Septet with Miles Davis and Lucky Thompson - Night In Tunesia
TTITLE15=Thelonious Monk Quartet with Milt Jackson - Mysterioso
TTITLE16=Dexter Gordon Quartet with Kenny Drew, Leroy Vinnegar and Larry Marable - Autumn In New York
TTITLE17=Woody Herman Orchestra with Kay Winding - Four Others
TTITLE18=Lionel Hampton Orchestra - Oh, Lady Be Good
TTITLE19=Quincy Jones Orchestra - Moanin'
EXTD=YEAR: 1990
EXTT0=
EXTT1=
EXTT2=
EXTT3=
EXTT4=
EXTT5=
EXTT6=
EXTT7=
EXTT8=
EXTT9=
EXTT10=
EXTT11=
EXTT12=
EXTT13=
EXTT14=
EXTT15=
EXTT16=
EXTT17=
EXTT18=
EXTT19=
PLAYORDER=
